<svg id="visual" viewBox="0 0 900 600" width="900" height="600" xmlns="http://www.w3.org/2000/svg" xmlns:xlink="http://www.w3.org/1999/xlink" version="1.1"><path d="M0 583L30 497.7C60 412.3 120 241.7 180 176.3C240 111 300 151 360 195.3C420 239.7 480 288.3 540 282.7C600 277 660 217 720 255.5C780 294 840 431 870 499.5L900 568L900 601L870 601C840 601 780 601 720 601C660 601 600 601 540 601C480 601 420 601 360 601C300 601 240 601 180 601C120 601 60 601 30 601L0 601Z" fill="#87BD20" stroke-linecap="round" stroke-linejoin="miter"></path></svg>